<svg width="25" height="19" viewBox="0 0 25 19" fill="none" xmlns="http://www.w3.org/2000/svg">
<path fill-rule="evenodd" clip-rule="evenodd" d="M0 0C0.0106033 0.0695625 0.021528 0.15123 0.0296231 0.223762C0.0442406 0.354742 0.0793168 0.586935 0.107598 0.73974C0.13588 0.892552 0.169605 1.19023 0.182568 1.40125C0.19553 1.61227 0.222282 1.86827 0.24204 1.97014C0.261796 2.07202 0.295268 2.30447 0.316429 2.48668C0.33759 2.66891 0.36685 2.88324 0.381442 2.96297C0.421734 3.18333 0.475865 3.68234 0.494744 4.0076C0.504046 4.16768 0.532303 4.39391 0.557576 4.51034C0.582824 4.62677 0.615869 4.84109 0.631013 4.98662C0.646132 5.13216 0.68008 5.3584 0.706431 5.48937C0.732783 5.62035 0.761216 5.86444 0.769616 6.03184C0.778016 6.19917 0.806372 6.47899 0.832623 6.65359C0.858896 6.82827 0.897734 7.10809 0.918947 7.27542C0.940182 7.44282 0.973704 7.66902 0.99346 7.77822C1.01322 7.88734 1.04252 8.15524 1.05857 8.37357C1.07465 8.59182 1.11052 8.91335 1.13833 9.08794C1.16616 9.26262 1.20369 9.53052 1.22179 9.68337C1.25486 9.96289 1.29914 10.2279 1.3183 10.2609C1.32397 10.2707 1.34179 10.4811 1.35794 10.7285C1.37406 10.9759 1.40783 11.2855 1.43298 11.4165C1.45815 11.5475 1.48666 11.7439 1.49639 11.8531C1.50612 11.9622 1.53565 12.1647 1.56205 12.3029C1.58843 12.4412 1.62729 12.7805 1.6484 13.057C1.66949 13.3335 1.70364 13.6551 1.72425 13.7715C1.74488 13.8879 1.78432 14.1618 1.81195 14.38C1.83955 14.5983 1.87267 14.8188 1.88556 14.8698C1.89845 14.9209 1.92548 15.1773 1.94561 15.4397C1.96577 15.702 1.99914 15.9936 2.0198 16.0877C2.04046 16.1817 2.07599 16.4135 2.09875 16.6027C2.12152 16.7919 2.15527 17.0122 2.17375 17.0922C2.19222 17.1723 2.21987 17.4282 2.23517 17.6611C2.2644 18.1059 2.32342 18.5871 2.36176 18.6936C2.37422 18.7281 2.41111 18.7749 2.44372 18.7974C2.49702 18.8343 3.50281 18.8385 12.3903 18.8387C21.1515 18.8388 22.2841 18.8343 22.3351 18.7991C22.4325 18.7317 22.4502 18.6592 22.4836 18.192C22.5013 17.9437 22.533 17.6512 22.5539 17.5421C22.5748 17.4329 22.6107 17.1828 22.6337 16.9864C22.6567 16.7899 22.6794 16.6223 22.6843 16.6138C22.7054 16.5768 22.7465 16.221 22.7825 15.7635C22.804 15.4912 22.8285 15.2495 22.8368 15.2264C22.8458 15.2016 22.8287 15.1581 22.7953 15.1206L22.7385 15.0567L14.1659 15.056C8.38259 15.0555 5.5779 15.0465 5.54563 15.0282C5.49105 14.9974 5.48305 14.9549 5.44602 14.4991C5.43123 14.3172 5.40302 14.1029 5.38336 14.0229C5.36368 13.9428 5.32943 13.7064 5.30724 13.4977C5.28506 13.2889 5.25782 13.0925 5.24675 13.0611C5.22084 12.988 5.20084 12.8035 5.16887 12.3435C5.15473 12.1402 5.12748 11.908 5.10829 11.8275C5.08909 11.747 5.06116 11.5581 5.04622 11.4078C5.03127 11.2575 4.99697 11.0193 4.97002 10.8786C4.94304 10.7379 4.90293 10.3845 4.88086 10.0935C4.8588 9.80239 4.82455 9.48687 4.80474 9.39229C4.78491 9.29764 4.74635 9.04167 4.71902 8.82335C4.69171 8.60509 4.65817 8.3729 4.64453 8.30742C4.63087 8.24195 4.60719 8.00974 4.5919 7.79142C4.57661 7.57317 4.55319 7.34097 4.53988 7.27549C4.52654 7.20994 4.48866 6.95397 4.45568 6.70654C4.42271 6.45912 4.38368 6.21507 4.36891 6.16414C4.35414 6.11314 4.32446 5.83332 4.30292 5.5423C4.28138 5.25123 4.25305 4.9476 4.23996 4.86755C4.13087 4.2012 4.08892 3.82721 4.12082 3.80583C4.13922 3.79353 7.87191 3.78625 12.4157 3.78967L20.677 3.79591L20.6849 3.89715C20.6892 3.95282 20.67 4.10761 20.6423 4.24113C20.6145 4.37465 20.5845 4.57318 20.5755 4.68233C20.5666 4.79148 20.5376 4.9939 20.5111 5.13216C20.4847 5.27041 20.4519 5.55023 20.4383 5.75398C20.4247 5.95774 20.4016 6.18994 20.3871 6.26997C20.3726 6.34999 20.3297 6.64662 20.2919 6.92914C20.2339 7.36212 20.2154 7.44792 20.1743 7.47544C20.1361 7.50094 18.8257 7.51137 14.1603 7.52314C9.92486 7.53379 8.1873 7.54655 8.16797 7.56687C8.14907 7.58682 8.13869 8.14804 8.134 9.40309C8.12839 10.8935 8.13315 11.2158 8.16101 11.2403C8.20698 11.2805 10.9258 11.2989 17.7865 11.3055C22.8549 11.3103 23.2733 11.3073 23.3116 11.267C23.3414 11.2355 23.3624 11.128 23.3865 10.8833C23.4049 10.6963 23.4317 10.4778 23.4458 10.3977C23.4599 10.3177 23.4947 10.0677 23.5231 9.84207C23.5513 9.61654 23.585 9.39627 23.5977 9.35262C23.6105 9.3089 23.6387 9.03552 23.6604 8.74497C23.6821 8.45449 23.716 8.15682 23.7356 8.08347C23.7553 8.01019 23.784 7.82517 23.7994 7.67232C23.8149 7.51955 23.838 7.34097 23.8507 7.27542C23.903 7.00879 23.9231 6.84792 23.9482 6.49489C23.9627 6.29112 23.9915 6.01722 24.0122 5.88627C24.0328 5.7553 24.0777 5.44571 24.1118 5.19831C24.1459 4.95091 24.185 4.67109 24.1988 4.57649C24.2125 4.48189 24.2356 4.21993 24.2501 3.99439C24.2647 3.76882 24.2925 3.52797 24.3119 3.45915C24.3312 3.39033 24.3657 3.17004 24.3885 2.96961C24.4113 2.76917 24.4463 2.5397 24.4662 2.45966C24.4861 2.37962 24.5136 2.14147 24.5271 1.93045C24.5408 1.71943 24.5737 1.4039 24.6003 1.22926C24.627 1.05462 24.6662 0.777735 24.6874 0.613972C24.7086 0.45021 24.7362 0.26814 24.7487 0.209393C24.7691 0.113925 24.7655 0.0984224 24.7154 0.0638099C24.6664 0.0299399 23.34 0.0250725 14.1897 0.02526L3.72006 0.02544L3.69978 0H0Z" fill="#49D0FF"/>
</svg>
